Simulation
nRows=42
nColumns=15
endheader
time  TH_x TH_y TH_z SC_y  SC_z  SC_x  AC_y  AC_z  AC_x  GH_y  GH_z  GH_yy  EL_x  PS_y
4.8020000000000005  0.000000  0.000000  0.000000  -39.34897475824538  9.017330455357184  -8.743090999101954  48.60961879037079  26.802585556709897  13.598595613379743  13.570195674253059  76.72678754163483  -14.792025203811239  13.602803001401051  120.000000
4.850020000000001  0.000000  0.000000  0.000000  -39.30098111889364  8.97072792609809  -8.208403799586135  48.75504074262588  26.686534109861313  13.349761944068849  13.467416085714408  76.69896148239754  -14.760143386923856  13.554467223464233  120.000000
4.898040000000001  0.000000  0.000000  0.000000  -39.020610607362215  8.794699546191667  -7.947817265407318  49.02106796561212  26.462861102807597  13.01013046415603  13.305774256580253  76.59079268202635  -14.36613885906555  13.40439028841855  120.000000
4.946060000000001  0.000000  0.000000  0.000000  -38.505685069021716  8.492655005918333  -8.003166372739958  49.41631311598421  26.104600848432433  12.589458582337759  13.06394820920205  76.40548538733948  -13.635785364852229  13.196854589143877  120.000000
4.99408  0.000000  0.000000  0.000000  -37.77109398720734  8.074970007820069  -8.38345420457906  49.924315606190966  25.606617901935856  12.12630142572308  12.730347321257144  76.08955599124417  -12.614298727024114  12.970266831577705  120.000000
5.0421000000000005  0.000000  0.000000  0.000000  -36.84647465521443  7.560401088344409  -9.06362888215824  50.5056846821397  24.99237465526167  11.683056687138254  12.306972228378267  75.5342536377939  -11.362369947428618  12.754111684273647  120.000000
5.090120000000001  0.000000  0.000000  0.000000  -35.767192946261396  6.971894071503283  -10.006085059596076  51.11470509352971  24.301694549811238  11.325663506047112  11.800828128466602  74.6275806473164  -9.93773426023761  12.570718812714896  120.000000
5.138140000000001  0.000000  0.000000  0.000000  -34.57223137608076  6.336020928701442  -11.171829098369182  51.70692771822298  23.583931154506434  11.11063652642437  11.221561025851527  73.28176612360997  -8.388829575754881  12.436262320081696  120.000000
5.186160000000001  0.000000  0.000000  0.000000  -33.305681527949375  5.683591446825256  -12.520957127057276  52.241215818214116  22.89696129224518  11.078091978998511  10.586845590079335  71.43733994922287  -6.7558856308738795  12.357631919141477  120.000000
5.234180000000001  0.000000  0.000000  0.000000  -32.016572638611144  5.049947166343384  -14.012362007314268  52.680769567486884  22.300187214297583  11.246179786764632  9.929550668747462  69.06573371311434  -5.066135933325975  12.32938906241377  120.000000
5.2822000000000005  0.000000  0.000000  0.000000  -30.757404164992284  4.471277453991168  -15.602195542434513  52.99377658028171  21.845725572772544  11.609149493211653  9.30324226395473  66.16975855494242  -3.3344245551323586  12.334276461295726  120.000000
5.330220000000001  0.000000  0.000000  0.000000  -29.58202310543062  3.980979781177834  -17.241621817099293  53.15471739455177  21.572927244588836  12.139520339164154  8.781699012913272  62.78364427416453  -1.5708686821612157  12.346566777859255  120.000000
5.378240000000001  0.000000  0.000000  0.000000  -28.548555427964995  3.6056077177640957  -18.87868184782053  53.13962319557484  21.505381990493206  12.797270419267246  8.449322000756855  58.97024906017562  0.21188052687067926  12.339149278253025  120.000000
5.426260000000001  0.000000  0.000000  0.000000  -27.712025124124583  3.364300984433326  -20.44747892261556  52.9388056271724  21.634244000192286  13.516367811543201  8.392588591322573  54.8103354517046  1.9900018358349894  12.29279779285281  120.000000
5.474280000000001  0.000000  0.000000  0.000000  -27.105848523093098  3.2608564440398293  -21.855832970622647  52.56987983559312  21.91779485009827  14.213132564482441  8.702660424285389  50.38728765138646  3.7160228282523717  12.206262750841972  120.000000
5.5223  0.000000  0.000000  0.000000  -26.741247769643092  3.285240900072107  -22.99645637348635  52.07290923663682  22.301465152108836  14.817119275999973  9.470118857059093  45.780965962336424  5.3156273831692324  12.095976311876857  120.000000
5.570320000000001  0.000000  0.000000  0.000000  -26.618089661415986  3.427427400653706  -23.770940241760353  51.501862632059165  22.729669506705758  15.2742892739242  10.770178180677748  41.067609397621375  6.699443836315525  11.987613821415074  120.000000
5.618340000000001  0.000000  0.000000  0.000000  -26.717416959090738  3.6797240679430243  -24.10950884112268  50.915133046622  23.156789292121406  15.550399197168185  12.662135238039221  36.3179458552182  7.770007988782686  11.908950141570289  120.000000
5.666360000000001  0.000000  0.000000  0.000000  -26.995482594269856  4.031684954249962  -23.980362341563463  50.37901447056566  23.556340894511173  15.636995105410577  15.200184485400253  31.60037605644606  8.417813252136247  11.88570689939936  120.000000
5.714380000000001  0.000000  0.000000  0.000000  -27.391224160774698  4.470187782411799  -23.378586164030995  49.96262957124951  23.909045740668354  15.552047646459869  18.43982330418518  26.979549352238436  8.522408982237904  11.940921278730869  120.000000
5.762400000000001  0.000000  0.000000  0.000000  -27.850524537952  4.978702798630093  -22.320252603354117  49.723994000535434  24.194126010993486  15.33560591776194  22.46046657920053  22.515271915698722  7.92927523427535  12.09187125930102  120.000000
5.810420000000001  0.000000  0.000000  0.000000  -28.33649818204951  5.545060633754727  -20.84875964489901  49.697029831415755  24.391229504222704  15.045709834760581  27.433256422836045  18.259585660393675  6.382357848125223  12.348735787505117  120.000000
5.858440000000001  0.000000  0.000000  0.000000  -28.827368842516805  6.170883594340468  -19.024679091686135  49.88811256637108  24.48859756152632  14.74352343795764  33.799898117892155  14.268225439649042  3.346686156519699  12.713454684342487  120.000000
5.906460000000001  0.000000  0.000000  0.000000  -29.318537120128347  6.85603932359086  -16.904677860988144  50.28010876933486  24.485079517932473  14.470079682040787  42.73373095545025  10.63699264914348  -2.4369823124274497  13.171034228101238  120.000000
5.954480000000001  0.000000  0.000000  0.000000  -29.807324685616972  7.591816263256714  -14.541451701412436  50.83391411736895  24.366280139368655  14.24529560410648  57.0969234037632  7.545455680195773  -13.877166661925228  13.701627443046734  120.000000
6.002500000000001  0.000000  0.000000  0.000000  -30.28850110066481  8.362116893883893  -11.99973332949417  51.49520714173171  24.11077081534105  14.080946877436887  82.3905818274734  5.410243312760344  -36.51304712914487  14.286452012498405  120.000000
6.050520000000001  0.000000  0.000000  0.000000  -30.760810031748722  9.146549894354216  -9.341960265487497  52.207465558179344  23.71134740529957  13.973681620925955  118.04053345498883  4.953253424876188  -69.81619345538698  14.896767963961215  120.000000
6.098540000000001  0.000000  0.000000  0.000000  -31.222795748154887  9.92803025804169  -6.6225279311490315  52.918132542013375  23.166509725665044  13.905649628028327  145.75628167049265  6.085564778072231  -95.51197434778112  15.502937172836335  120.000000
6.146560000000001  0.000000  0.000000  0.000000  -31.669210748412947  10.689617778133666  -3.9031219040049785  53.583821984583246  22.475133300173297  13.856097858365995  160.9020166476527  7.820649325434136  -108.95384258515458  16.077147817081286  120.000000
6.194580000000001  0.000000  0.000000  0.000000  -32.089972650630024  11.417364832389922  -1.2514123887562398  54.17921396586703  21.64334618110199  13.801487159717169  169.20627545215126  9.576958876487577  -115.84808175803741  16.589275905476196  120.000000
6.242600000000001  0.000000  0.000000  0.000000  -32.47138572361742  12.10522285879227  1.2670098301516453  54.694987859397344  20.683350023240195  13.721243013441981  174.15650935907738  11.139986816650936  -119.6523187481204  17.010739996530365  120.000000
6.2906200000000005  0.000000  0.000000  0.000000  -32.799195405634244  12.753647653984077  3.5932261637507947  55.134208929871775  19.613376656969223  13.60406209040891  177.30712530986628  12.430568580985197  -121.8866797144168  17.322108401521984  120.000000
6.338640000000001  0.000000  0.000000  0.000000  -33.058134450708835  13.370578986963254  5.681332968184463  55.50933997728223  18.455034940037248  13.448188419460102  179.37011881425641  13.422694294759353  -123.22268274343017  17.522631179856887  120.000000
6.386660000000001  0.000000  0.000000  0.000000  -33.237568866845336  13.966890251126289  7.5036670472267435  55.8325801968371  17.227192604182324  13.26273248351102  -179.28439126753725  14.118199227730338  -123.98244294616799  17.632185823544702  120.000000
6.434680000000001  0.000000  0.000000  0.000000  -33.33133026581642  14.55612044295738  9.051063992582812  56.11028495229641  15.94804094766443  13.067299428887722  -178.43098386938254  14.541433588633927  -124.3381270896665  17.686158151988487  120.000000
6.482700000000001  0.000000  0.000000  0.000000  -33.3393642046942  15.154512453196357  10.33195377247773  56.3422140546941  14.641652559822674  12.88977969120252  -177.91271378634409  14.741365871585119  -124.39585514009663  17.72382569231953  120.000000
6.5307200000000005  0.000000  0.000000  0.000000  -33.26976840265852  15.78203184481962  11.37760265538524  56.5211281699572  13.340626766554685  12.761108231637865  -177.6001421273904  14.796176474747607  -124.2460324127078  17.775284397723997  120.000000
6.578740000000001  0.000000  0.000000  0.000000  -33.14374099397294  16.461240612453388  12.24005431539863  56.630774891521504  12.077068547357733  12.709005628088622  -177.38048786776943  14.7992230547466  -123.97970821976206  17.850541982343028  120.000000
6.626760000000001  0.000000  0.000000  0.000000  -32.99717354535449  17.216003482313777  12.966872061970701  56.65293889834413  10.864656665216236  12.7442085636964  -177.23314222494108  14.81210869840647  -123.61011836454652  17.93983907964219  120.000000
6.674780000000001  0.000000  0.000000  0.000000  -32.87577433998155  18.072225641970533  13.591300902165681  56.57293596050783  9.696012110475008  12.856732217526465  -177.25704410112925  14.853299127303654  -123.03722459596169  18.02109789701952  120.000000
6.722800000000001  0.000000  0.000000  0.000000  -32.83132049227914  19.05262312267361  14.14841976705681  56.37245742237835  8.56094074081562  13.028294031164702  -177.60835699626492  14.940473002570279  -122.10389329109417  18.06557729831633  120.000000
6.770820000000001  0.000000  0.000000  0.000000  -32.91547710995629  20.171037164217978  14.683231728869256  56.03085307756326  7.455342556573183  13.234735006402234  -178.47029417781434  15.107581041161643  -120.61625309678124  18.044101040029513  120.000000
